<?xml version="1.0" standalone="no"?>
<!DOCTYPE svg PUBLIC "-//W3C//DTD SVG 1.1//EN" "http://www.w3.org/Graphics/SVG/1.1/DTD/svg11.dtd" >
<svg xmlns="http://www.w3.org/2000/svg">
<metadata>Generated by IcoMoon</metadata>
<defs>
<font id="icomoon" horiz-adv-x="1024">
<font-face units-per-em="1024" ascent="960" descent="-64" />
<missing-glyph horiz-adv-x="1024" />
<glyph unicode="&#x20;" horiz-adv-x="512" d="" />
<glyph unicode="&#xe900;" glyph-name="back" d="M331.295 447.762l444.985 444.985c15.384 15.386 15.384 40.33 0 55.716-15.388 15.381-40.33 15.381-55.716 0l-472.843-472.843c-15.381-15.386-15.381-40.33 0-55.716l472.843-472.843c15.654-15.118 40.598-14.684 55.716 0.97 14.746 15.27 14.746 39.478 0 54.746l-444.985 444.985z" />
<glyph unicode="&#xe901;" glyph-name="chat" d="M914.286 959.996h-804.572c-60.594 0-109.714-49.121-109.714-109.714v-585.143c0-60.594 49.121-109.714 109.714-109.714h129.829l-19.894-178.834c-2.218-20.076 12.259-38.147 32.336-40.365 10.367-1.144 20.73 2.192 28.483 9.169l233.398 210.030h400.42c60.594 0 109.714 49.121 109.714 109.714v585.143c0 60.594-49.121 109.714-109.714 109.714z" />
<glyph unicode="&#xe902;" glyph-name="close" d="M605.814 447.162l398.725 398.737c25.948 25.936 25.948 67.871 0 93.808-25.936 25.936-67.871 25.936-93.808 0l-398.737-398.737-398.725 398.737c-25.948 25.936-67.871 25.936-93.808 0-25.948-25.936-25.948-67.871 0-93.808l398.725-398.737-398.725-398.737c-25.948-25.936-25.948-67.871 0-93.808 12.926-12.938 29.921-19.437 46.904-19.437s33.966 6.499 46.904 19.437l398.725 398.737 398.737-398.737c12.938-12.938 29.921-19.437 46.904-19.437s33.966 6.499 46.904 19.437c25.948 25.936 25.948 67.871 0 93.808z" />
<glyph unicode="&#xe903;" glyph-name="compare" d="M1013.322 693.717c-0.021 0.021-0.043 0.043-0.064 0.066l-0.036-0.036-146.282 146.282c-14.528 14.031-37.679 13.628-51.71-0.9-13.688-14.172-13.688-36.64 0-50.812l83.893-83.893h-204.281c-141.313-0.161-255.831-114.678-255.994-255.994-0.12-100.936-81.915-182.731-182.851-182.851h-219.422c-20.2 0-36.573-16.373-36.573-36.571s16.373-36.571 36.571-36.571h219.422c141.313 0.161 255.831 114.678 255.994 255.994 0.12 100.936 81.915 182.731 182.851 182.851h204.281l-83.856-83.856c-14.528-14.031-14.931-37.184-0.898-51.71 14.031-14.528 37.184-14.931 51.71-0.898 0.304 0.294 0.604 0.594 0.898 0.898l146.282 146.282c14.301 14.265 14.329 37.42 0.066 51.719zM1013.322 254.872c-0.021 0.021-0.043 0.043-0.064 0.064l-0.036-0.036-146.282 146.282c-14.528 14.031-37.679 13.628-51.71-0.9-13.688-14.172-13.688-36.64 0-50.81l83.893-83.893h-204.281c-44.99-0.032-88.408 16.545-121.925 46.554-15.173 13.332-38.279 11.839-51.611-3.332-13.157-14.974-11.899-37.724 2.826-51.157 46.923-42.029 107.716-65.25 170.71-65.205h204.281l-83.856-83.856c-14.528-14.031-14.931-37.182-0.9-51.71s37.182-14.931 51.71-0.9c0.304 0.296 0.604 0.594 0.9 0.9l146.282 146.282c14.299 14.262 14.327 37.418 0.064 51.716zM426.704 639.219c-46.923 42.029-107.716 65.25-170.71 65.205h-219.422c-20.198 0-36.571-16.373-36.571-36.571s16.373-36.571 36.571-36.571h219.422c44.99 0.032 88.408-16.545 121.925-46.554 15.173-13.332 38.279-11.839 51.611 3.332 13.157 14.976 11.899 37.726-2.826 51.159z" />
<glyph unicode="&#xe904;" glyph-name="control" d="M483.174 276.989c-31.449 49.551-49.942 108.114-49.942 171.008 0 62.898 18.493 121.463 49.942 171.013 25.456 40.099 59.528 74.078 99.627 99.499h-312.293c-149.149 0.002-270.508-121.356-270.508-270.51 0-149.147 121.359-270.508 270.508-270.508h312.293c-40.099 25.425-74.172 59.398-99.627 99.497zM753.49 718.511c-149.151 0-270.51-121.359-270.51-270.512 0-149.147 121.359-270.508 270.51-270.508 149.149 0 270.51 121.363 270.51 270.508 0 149.153-121.361 270.512-270.51 270.512zM753.49 276.989c-94.286 0-171.010 76.729-171.010 171.008 0 94.286 76.727 171.013 171.010 171.013s171.013-76.729 171.013-171.013c0-94.28-76.727-171.008-171.013-171.008z" />
<glyph unicode="&#xe905;" glyph-name="eye" d="M1016.354 468.010c-9.14 10.196-228.99 249.99-504.354 249.99s-495.212-239.794-504.354-249.99c-10.196-11.396-10.196-28.624 0-40.020 9.142-10.196 228.994-249.99 504.354-249.99s495.212 239.794 504.354 249.99c10.194 11.396 10.194 28.624 0 40.020zM512 238c-115.782 0-210 94.218-210 210s94.218 210 210 210 210-94.218 210-210-94.218-210-210-210zM542 508c0 30.18 14.982 56.73 37.774 73.060-20.452 10.47-43.264 16.94-67.774 16.94-82.706 0-150-67.294-150-150s67.294-150 150-150c74.048 0 135.336 54.068 147.444 124.716-60.412-19.45-117.444 26.24-117.444 85.284z" />
<glyph unicode="&#xe906;" d="M778.23 708.234l-413.724 238.866c-26.132 15.088-49.81 16.49-66.908 6.554l-116.776-67.862c0.054 0.032 0.114 0.056 0.17 0.090-16.976-9.768-27.512-30.658-27.598-60.402l-1.348-475.404c-0.17-59.67 41.796-132.356 93.724-162.336l413.726-238.864c26.882-15.518 51.146-16.524 68.34-5.636-0.478-0.302-0.944-0.628-1.436-0.916l116.772 67.86c16.88 9.81 27.344 30.666 27.43 60.31l1.348 475.404c0.174 59.684-41.792 132.356-93.72 162.336z" />
<glyph unicode="&#xe907;" d="M843.176 10.186l-116.772-67.86c16.88 9.81 27.348 30.666 27.43 60.31l116.772 67.86c-0.084-29.642-10.552-50.5-27.43-60.31z" />
<glyph unicode="&#xe908;" d="M180.822 885.792l116.772 67.86c17.098 9.936 40.776 8.534 66.908-6.554l-116.772-67.86c-26.132 15.088-49.808 16.492-66.908 6.554z" />
<glyph unicode="&#xe909;" d="M755.182 478.038l116.772 67.862-1.348-475.404-116.772-67.86z" />
<glyph unicode="&#xe90a;" d="M247.732 879.238l116.774 67.862 413.724-238.866-116.772-67.86z" />
<glyph unicode="&#xe90b;" d="M661.458 640.374l116.772 67.86c51.93-29.98 93.892-102.654 93.724-162.336l-116.772-67.86c0.17 59.682-41.796 132.354-93.724 162.336z" />
<glyph unicode="&#xe90c;" d="M395.156 368.318l0.294 103.86 78.046-45.060 0.218 76.6c0.252 88.896 47.642 110.002 116.65 70.16 33.048-19.080 61.446-38.3 69.732-44.35l-0.264-92.89-47.868 27.606c-37.52 21.662-44.844 5.362-44.93-24.702l-0.188-66.322 89.494-51.67-11.942-97.136-77.85 44.946-0.752-266.49-93.35 53.896 0.756 266.49-78.046 45.062z" />
<glyph unicode="&#xe90d;" d="M473.714 501.63l-0.218-76.6-78.046 45.060-0.294-103.86 78.046-45.060-0.75-264.302 93.35-53.896 0.75 264.302 77.848-44.946 11.94 97.136-89.494 51.67 0.188 66.322c0.086 30.064 7.408 46.364 44.93 24.702l47.868-27.606 0.264 92.89c-8.284 6.052-36.682 25.27-69.732 44.35-69.008 39.84-116.398 18.732-116.65-70.162z" />
<glyph unicode="&#xe90e;" glyph-name="favorites" d="M752 900c-55.566 0-106.51-17.608-151.414-52.336-43.050-33.294-71.712-75.7-88.586-106.536-16.874 30.838-45.536 73.242-88.586 106.536-44.904 34.728-95.848 52.336-151.414 52.336-155.064 0-272-126.834-272-295.028 0-181.708 145.886-306.030 366.738-494.236 37.504-31.962 80.014-68.19 124.198-106.828 5.824-5.1 13.304-7.908 21.064-7.908s15.24 2.808 21.064 7.906c44.188 38.644 86.696 74.87 124.222 106.85 220.828 188.186 366.714 312.508 366.714 494.216 0 168.194-116.936 295.028-272 295.028z" />
<glyph unicode="&#xe90f;" glyph-name="favorites_border" d="M949.288 811.46c-50.506 57.308-120.572 88.868-197.288 88.868-107.896 0-176.206-64.44-214.51-118.5-9.938-14.028-18.392-28.094-25.49-41.33-7.098 13.236-15.55 27.302-25.49 41.33-38.304 54.060-106.614 118.5-214.51 118.5-76.716 0-146.782-31.562-197.29-88.87-48.176-54.668-74.71-127.884-74.71-206.16 0-85.206 33.266-164.456 104.69-249.4 63.834-75.92 155.668-154.176 262.010-244.794 39.626-33.768 80.604-68.688 124.23-106.858l1.31-1.148c5.656-4.952 12.708-7.426 19.76-7.426s14.104 2.476 19.76 7.426l1.31 1.148c43.626 38.17 84.604 73.088 124.236 106.862 106.336 90.612 198.17 168.868 262.004 244.79 71.424 84.946 104.69 164.194 104.69 249.4 0 78.276-26.534 151.492-74.712 206.162zM618.386 156.772c-34.16-29.108-69.316-59.066-106.386-91.292-37.068 32.222-72.226 62.182-106.392 91.296-208.118 177.346-345.608 294.508-345.608 448.522 0 63.66 21.21 122.788 59.724 166.49 38.956 44.198 93.034 68.54 152.276 68.54 82.258 0 135.432-50.676 165.552-93.188 27.018-38.128 41.116-76.564 45.924-91.318 4.022-12.35 15.536-20.708 28.524-20.708s24.502 8.358 28.524 20.708c4.808 14.754 18.906 53.19 45.924 91.32 30.12 42.51 83.294 93.186 165.552 93.186 59.242 0 113.32-24.342 152.274-68.54 38.516-43.702 59.726-102.83 59.726-166.49 0-154.014-137.49-271.176-345.614-448.526z" />
<glyph unicode="&#xe910;" glyph-name="grid" d="M128 960h192c70.692 0 128-57.308 128-128v0-192c0-70.692-57.308-128-128-128v0h-192c-70.692 0-128 57.308-128 128v0 192c0 70.692 57.308 128 128 128v0zM704 960h192c70.692 0 128-57.308 128-128v0-192c0-70.692-57.308-128-128-128v0h-192c-70.692 0-128 57.308-128 128v0 192c0 70.692 57.308 128 128 128v0zM704 384h192c70.692 0 128-57.308 128-128v0-192c0-70.692-57.308-128-128-128v0h-192c-70.692 0-128 57.308-128 128v0 192c0 70.692 57.308 128 128 128v0zM128 384h192c70.692 0 128-57.308 128-128v0-192c0-70.692-57.308-128-128-128v0h-192c-70.692 0-128 57.308-128 128v0 192c0 70.692 57.308 128 128 128v0z" />
<glyph unicode="&#xe911;" d="M778.23 708.234l-413.724 238.866c-26.132 15.088-49.81 16.49-66.908 6.554l-116.776-67.862c0.054 0.032 0.114 0.056 0.17 0.090-16.976-9.768-27.512-30.658-27.598-60.402l-1.348-475.404c-0.17-59.67 41.796-132.356 93.724-162.336l413.726-238.864c26.882-15.518 51.146-16.524 68.34-5.636-0.478-0.302-0.944-0.628-1.436-0.916l116.772 67.86c16.88 9.81 27.344 30.666 27.43 60.31l1.348 475.404c0.174 59.684-41.792 132.356-93.72 162.336z" />
<glyph unicode="&#xe912;" d="M843.176 10.186l-116.772-67.86c16.88 9.81 27.348 30.666 27.43 60.31l116.772 67.86c-0.084-29.642-10.552-50.5-27.43-60.31z" />
<glyph unicode="&#xe913;" d="M180.822 885.792l116.772 67.86c17.098 9.936 40.776 8.534 66.908-6.554l-116.772-67.86c-26.132 15.088-49.808 16.492-66.908 6.554z" />
<glyph unicode="&#xe914;" d="M755.182 478.038l116.772 67.862-1.348-475.404-116.772-67.86z" />
<glyph unicode="&#xe915;" d="M247.732 879.238l116.774 67.862 413.724-238.866-116.772-67.86z" />
<glyph unicode="&#xe916;" d="M661.458 640.374l116.772 67.86c51.93-29.98 93.892-102.654 93.724-162.336l-116.772-67.86c0.17 59.682-41.796 132.354-93.724 162.336z" />
<glyph unicode="&#xe917;" d="M441.428 231.072c-51.354 29.65-57.436 33.386-77.716 46.168-18.746 11.796-28.926 21.286-35.698 28.232-8.966 9.184-15.352 17.67-22.062 29.292s-10.858 21.4-14.324 33.732c-2.614 9.314-5.708 22.814-6.506 44.868-0.852 23.836-1.030 30.938-0.864 89.948 0.168 59.010 0.382 65.9 1.368 88.674 0.92 21.048 4.080 30.938 6.738 37.208 3.524 8.296 7.714 13.258 14.468 17.108s13.168 4.944 22.156 3.764c6.79-0.886 16.99-3.162 35.742-13.014 20.286-10.64 26.366-13.924 77.722-43.574 51.368-29.656 57.448-33.392 77.728-46.174 18.746-11.796 28.928-21.286 35.698-28.232 8.966-9.184 15.352-17.67 22.062-29.292s10.858-21.4 14.324-33.732c2.602-9.308 5.708-22.814 6.506-44.854 0.852-23.836 1.030-30.952 0.864-89.964-0.168-59.010-0.382-65.886-1.368-88.66-0.92-21.064-4.092-30.946-6.738-37.222-3.524-8.296-7.714-13.258-14.468-17.108s-13.168-4.944-22.156-3.764c-6.79 0.886-16.99 3.162-35.742 13.016-20.282 10.638-26.366 13.924-77.734 43.58zM442.57 633.292c-52.236 30.16-58.786 33.686-79.304 44.46-20.48 10.752-34.472 15.076-46.724 16.688-12.658 1.648-23.41 0.278-34.136-5.836-10.726-6.112-17.334-14.648-22.294-26.336-4.798-11.316-8.092-25.502-9.090-48.496-1.012-23.028-1.254-30.426-1.424-90.448-0.17-60.024 0.030-67.676 0.906-91.794 0.866-24.068 4.068-42.008 8.788-58.818 4.876-17.366 11.414-33.488 22.072-51.95s21.366-32.22 33.992-45.17c12.224-12.518 26.192-24.324 46.666-37.232 20.512-12.914 27.058-16.95 79.298-47.108 52.25-30.166 58.798-33.694 79.316-44.466 20.47-10.732 34.472-15.076 46.712-16.68 12.67-1.656 23.422-0.284 34.15 5.828 10.726 6.112 17.334 14.648 22.294 26.336 4.798 11.316 8.092 25.502 9.090 48.496 0.998 23.036 1.254 30.426 1.424 90.448 0.17 60.026-0.042 67.684-0.906 91.794-0.866 24.068-4.068 42.006-8.788 58.818-4.876 17.366-11.414 33.488-22.072 51.95-10.658 18.46-21.366 32.22-34.006 45.178-12.21 12.512-26.192 24.338-46.652 37.224-20.516 12.914-27.064 16.948-79.312 47.114z" />
<glyph unicode="&#xe918;" d="M441.734 338.596c-35.402 20.438-64.014 69.998-63.898 110.69 0.114 40.692 28.914 57.104 64.316 36.666 35.414-20.446 64.026-70.004 63.91-110.698s-28.914-57.104-64.328-36.658zM442.264 525.77c-54.542 31.492-98.916 6.218-99.094-56.47s43.908-139.034 98.45-170.524c54.554-31.498 98.916-6.218 99.094 56.47 0.18 62.688-43.894 139.028-98.45 170.524z" />
<glyph unicode="&#xe919;" d="M545.036 497.498c-12.752 7.362-23.124 1.452-23.166-13.202-0.042-14.64 10.26-32.486 23.014-39.848 12.74-7.356 23.112-1.446 23.152 13.194 0.044 14.654-10.258 32.502-23 39.856z" />
<glyph unicode="&#xe91a;" glyph-name="location" d="M512.002-64c-22.352 0-42.368 11.592-53.54 31.010-0.118 0.204-0.232 0.41-0.346 0.616l-253.924 464.772c-60.612 110.942-58.874 242.624 4.65 352.248 62.146 107.248 172.53 172.77 295.278 175.274 5.244 0.108 10.516 0.108 15.756 0 122.75-2.504 233.134-68.026 295.282-175.274 63.524-109.624 65.262-241.304 4.65-352.248l-253.924-464.772c-0.114-0.206-0.228-0.412-0.346-0.616-11.17-19.416-31.184-31.010-53.536-31.010zM512 896c-2.198 0-4.39-0.022-6.578-0.066-100.198-2.044-190.37-55.642-241.208-143.376-52.214-90.11-53.658-198.324-3.86-289.472l251.646-460.6 251.644 460.598c49.798 91.15 48.356 199.364-3.862 289.474-50.838 87.732-141.010 141.332-241.208 143.376-2.182 0.044-4.376 0.066-6.574 0.066zM512 496c-79.402 0-144 64.598-144 144s64.598 144 144 144 144-64.598 144-144-64.596-144-144-144zM512 720c-44.112 0-80-35.888-80-80s35.888-80 80-80 80 35.888 80 80-35.888 80-80 80z" />
<glyph unicode="&#xe91b;" glyph-name="login" d="M678.954 414.609h-645.562c-18.432 0-33.391 14.959-33.391 33.391s14.959 33.391 33.391 33.391h645.562c18.432 0 33.391-14.959 33.391-33.391s-14.959-33.391-33.391-33.391zM500.87 236.524c-8.552 0-17.095 3.245-23.601 9.791-13.043 13.043-13.043 34.19 0 47.242l154.492 154.484-154.492 154.492c-13.043 13.043-13.043 34.198 0 47.242 13.052 13.043 34.198 13.043 47.242 0l178.084-178.092c13.043-13.043 13.043-34.19 0-47.234l-178.084-178.084c-6.546-6.595-15.090-9.84-23.641-9.84zM534.261-41.742c-202.622 0-381.505 121.899-455.812 310.59-6.766 17.095 1.688 36.505 18.832 43.272 17.095 6.677 36.554-1.647 43.321-18.88 64.158-162.905 218.69-268.198 393.66-268.198 233.201 0 422.959 189.758 422.959 422.959s-189.758 422.959-422.959 422.959c-174.97 0-329.503-105.293-393.66-268.198-6.815-17.234-26.226-25.557-43.321-18.88-17.144 6.766-25.598 26.177-18.832 43.272 74.307 188.69 253.19 310.59 455.812 310.59 270.024 0 489.742-219.717 489.742-489.742s-219.717-489.742-489.742-489.742z" />
<glyph unicode="&#xe91c;" glyph-name="next" d="M1007.633 487.786l-369.803 369.811c-10.556 10.556-24.626 16.351-39.628 16.351-15.019 0-29.080-5.803-39.636-16.351l-33.575-33.584c-10.548-10.54-16.359-24.617-16.359-39.628 0-15.002 5.811-29.554 16.359-40.094l215.738-216.212h-685.408c-30.903 0-55.321-24.193-55.321-55.104v-47.478c0-30.911 24.418-57.543 55.321-57.543h687.856l-218.177-217.419c-10.548-10.556-16.359-24.251-16.359-39.261 0-14.994 5.811-28.888 16.359-39.436l33.575-33.475c10.556-10.556 24.617-16.309 39.636-16.309 15.002 0 29.071 5.828 39.628 16.384l369.803 369.803c10.581 10.59 16.401 24.726 16.359 39.753 0.033 15.077-5.778 29.221-16.367 39.794z" />
<glyph unicode="&#xe91d;" glyph-name="order" d="M917.474 115.564l-45.73 576.232c-2.85 37.124-34.246 66.206-71.478 66.206h-90.326v4.060c0 109.144-88.794 197.938-197.938 197.938s-197.938-88.794-197.938-197.938v-4.060h-90.324c-37.234 0-68.632-29.080-71.472-66.128l-45.744-576.388c-3.54-46.15 12.47-92.096 43.922-126.052s76.038-53.434 122.324-53.434h478.462c46.284 0 90.872 19.476 122.326 53.434 31.452 33.958 47.46 79.902 43.916 126.13zM374.044 762.062c0 76.070 61.89 137.958 137.958 137.958s137.958-61.89 137.958-137.958v-4.060h-275.916v4.060zM829.552 30.19c-20.436-22.060-48.248-34.21-78.32-34.21h-478.46c-30.072 0-57.884 12.15-78.32 34.21-20.434 22.062-30.422 50.726-28.126 80.63l45.74 576.39c0.464 6.064 5.592 10.812 11.674 10.812h90.324v-73.87c0-16.562 13.428-29.99 29.99-29.99s29.99 13.428 29.99 29.99v73.87h275.916v-73.87c0-16.562 13.428-29.99 29.99-29.99s29.99 13.428 29.99 29.99v73.87h90.326c6.080 0 11.208-4.75 11.68-10.892l45.73-576.23c2.3-29.984-7.69-58.646-28.124-80.71zM647.112 451.43c-11.708 11.712-30.698 11.712-42.408 0l-133.912-133.912-51.492 51.492c-11.71 11.712-30.7 11.712-42.412 0s-11.712-30.7 0-42.412l72.698-72.698c5.856-5.856 13.532-8.786 21.204-8.786s15.35 2.928 21.204 8.786l155.116 155.116c11.714 11.714 11.714 30.702 0.002 42.414z" />
<glyph unicode="&#xe91e;" glyph-name="phone" d="M424.024 360.024c-97.739 97.739-119.808 195.478-124.787 234.637-1.391 10.828 2.335 21.686 10.081 29.378l79.095 79.060c11.635 11.628 13.7 29.749 4.979 43.697l-125.934 195.549c-9.648 15.444-29.459 21.018-45.745 12.871l-202.169-95.214c-13.17-6.485-20.916-20.477-19.421-35.081 10.593-100.634 54.466-348.019 297.578-591.148s490.461-286.985 591.148-297.578c14.603-1.495 28.596 6.251 35.081 19.421l95.214 202.169c8.117 16.251 2.58 36.008-12.8 45.674l-195.549 125.899c-13.939 8.73-32.060 6.68-43.697-4.943l-79.060-79.095c-7.692-7.746-18.551-11.472-29.378-10.081-39.159 4.979-136.898 27.048-234.637 124.787zM759.172 960c-146.255 0-264.828-102.753-264.828-229.517 0.239-46.512 16.094-91.595 45.021-128.018l-27.366-136.81 138.84 55.543c34.541-13.412 71.278-20.274 108.332-20.233 146.255 0 264.828 102.753 264.828 229.517s-118.572 229.517-264.828 229.517zM617.931 695.172c-19.501 0-35.31 15.809-35.31 35.31s15.809 35.31 35.31 35.31 35.31-15.809 35.31-35.31-15.809-35.31-35.31-35.31zM759.172 695.172c-19.501 0-35.31 15.809-35.31 35.31s15.809 35.31 35.31 35.31 35.31-15.809 35.31-35.31-15.809-35.31-35.31-35.31zM900.414 695.172c-19.501 0-35.31 15.809-35.31 35.31s15.809 35.31 35.31 35.31 35.31-15.809 35.31-35.31-15.809-35.31-35.31-35.31z" />
<glyph unicode="&#xe91f;" glyph-name="phone_border" d="M735.946-64c-33.055 0-65.829 5.844-97.878 17.487-141.19 51.29-272.245 134.826-379 241.58s-190.292 237.81-241.58 379c-16.481 45.374-21.345 92.212-14.451 139.218 6.458 44.030 23.513 86.774 49.324 123.613 25.925 37 60.488 67.775 99.95 88.996 42.082 22.629 88.014 34.105 136.524 34.105 15.087 0 28.127-10.542 31.289-25.293l50.226-234.388c2.274-10.614-0.988-21.657-8.662-29.333l-85.822-85.82c80.961-160.965 212.331-292.336 373.297-373.297l85.82 85.822c7.676 7.674 18.721 10.932 29.333 8.662l234.388-50.226c14.753-3.162 25.293-16.201 25.293-31.289 0-48.51-11.476-94.444-34.107-136.526-21.221-39.462-51.996-74.025-88.996-99.95-36.836-25.811-79.581-42.866-123.613-49.324-13.797-2.026-27.593-3.036-41.334-3.038zM263.267 894.603c-63.987-7.064-120.781-40.602-158.495-94.43-42.41-60.528-52.3-134.974-27.133-204.256 98.604-271.441 310.837-483.674 582.278-582.278 69.279-25.167 143.726-15.279 204.256 27.133 53.828 37.714 87.366 94.508 94.43 158.495l-190.674 40.858-89.628-89.628c-9.538-9.538-24.029-12.072-36.233-6.336-190.372 89.436-344.47 243.534-433.906 433.906-5.734 12.205-3.202 26.697 6.336 36.233l89.628 89.628z" />
<glyph unicode="&#xe920;" glyph-name="play" d="M839.851 543.087l-568.792 389.393c-26.268 17.995-52.735 27.52-74.734 27.52-42.531 0-68.84-34.134-68.84-91.27v-841.592c0-57.070 26.276-91.138 68.708-91.138 22.032 0 48.076 9.532 74.402 27.578l569.057 389.385c36.596 25.083 56.863 58.835 56.863 95.083 0.008 36.223-20.026 69.968-56.664 95.042z" />
<glyph unicode="&#xe921;" glyph-name="reverse" d="M725.333 703.993h-672.117c-24.764 0-47.514-16.692-52.224-40.994-6.348-32.682 18.636-61.406 50.21-61.406h674.131c4.71 0 8.534 3.822 8.534 8.534v85.334c0 4.708-3.824 8.532-8.534 8.532zM1017.956 665.831l-221.865 187.733c-5.068 4.284-12.168 5.256-18.21 2.458-6.024-2.816-9.882-8.84-9.882-15.496v-375.465c0-6.656 3.858-12.68 9.882-15.48 2.304-1.076 4.744-1.588 7.186-1.588 3.96 0 7.884 1.382 11.026 4.028l221.865 187.733c3.84 3.26 6.042 8.022 6.042 13.038s-2.204 9.778-6.044 13.038zM246.119 446.406c-6.042 2.798-13.142 1.826-18.21-2.458l-221.865-187.731c-3.84-3.242-6.042-8.004-6.042-13.022s2.202-9.78 6.042-13.038l221.865-187.733c3.14-2.646 7.066-4.028 11.026-4.028 2.44 0 4.882 0.512 7.186 1.588 6.024 2.798 9.882 8.824 9.882 15.48v375.463c-0.002 6.656-3.858 12.682-9.884 15.48zM1023.008 253.401c-4.728 24.302-27.478 40.994-52.224 40.994h-672.117c-4.71 0-8.534-3.822-8.534-8.534v-85.334c0-4.71 3.822-8.534 8.534-8.534h674.131c31.574 0.002 56.56 28.724 50.21 61.408z" />
<glyph unicode="&#xe922;" glyph-name="search" d="M1017.75 2.582l-297.465 297.465c56.42 69.654 90.382 158.206 90.382 254.618 0 223.5-181.834 405.335-405.335 405.335s-405.333-181.834-405.333-405.335 181.834-405.335 405.335-405.335c96.412 0 184.964 33.964 254.618 90.382l297.465-297.465c8.334-8.33 21.838-8.33 30.172 0l30.162 30.164c8.33 8.332 8.33 21.84-0.002 30.17zM405.335 234.665c-176.458 0-320.001 143.542-320.001 320.001s143.542 320.001 320.001 320.001 320.001-143.542 320.001-320.001-143.542-320.001-320.001-320.001z" />
<glyph unicode="&#xe923;" glyph-name="star" d="M1022.53 565.486c-3.528 10.862-12.914 18.778-24.214 20.418l-317.445 46.13-141.969 287.653c-5.052 10.24-15.482 16.722-26.9 16.722-11.42 0-21.848-6.482-26.902-16.722l-141.975-287.653-317.439-46.13c-11.298-1.64-20.688-9.556-24.216-20.416-3.53-10.862-0.586-22.784 7.592-30.754l229.695-223.907-54.216-316.165c-1.932-11.256 2.696-22.628 11.934-29.342 5.226-3.796 11.416-5.728 17.636-5.728 4.776 0 9.568 1.138 13.956 3.446l283.933 149.275 283.921-149.273c10.11-5.314 22.356-4.43 31.594 2.282s13.868 18.088 11.938 29.344l-54.234 316.161 229.721 223.909c8.176 7.968 11.122 19.89 7.59 30.75z" />
<glyph unicode="&#xe924;" glyph-name="talk" d="M860.184 907.239c93.399 0 163.812-67.858 163.812-163.782v-364.038c0-83.333-65.224-163.97-163.812-163.97h-277.814c-25.609 0-61.008-14.799-79.019-33.044l-180.619-182.944c-18.018-18.222-36.535-12.602-41.359 12.553l-30.289 157.833c-4.827 25.156-26.314 45.597-48.017 45.597h-39.264c-100.936 0-163.804 73.116-163.804 163.97v364.042c0 98.634 67.858 163.782 163.804 163.782h696.38z" />
<glyph unicode="&#xe925;" glyph-name="check" d="M1012.502 824.863c-15.715 16.272-41.645 16.723-57.917 1.008-0.341-0.329-0.677-0.665-1.008-1.008l-667.36-667.363-216.801 216.801c-16.272 15.715-42.202 15.264-57.917-1.008-15.331-15.874-15.331-41.038 0-56.911l245.76-245.76c15.996-15.991 41.923-15.991 57.917 0l696.319 696.321c16.272 15.718 16.723 41.647 1.008 57.919z" />
<glyph unicode="&#xe926;" d="M778.23 708.234l-413.724 238.866c-26.132 15.088-49.81 16.49-66.908 6.554l-116.776-67.862c0.054 0.032 0.114 0.056 0.17 0.090-16.976-9.768-27.512-30.658-27.598-60.402l-1.348-475.404c-0.17-59.67 41.796-132.356 93.724-162.336l413.726-238.864c26.882-15.518 51.146-16.524 68.34-5.636-0.478-0.302-0.944-0.628-1.436-0.916l116.772 67.86c16.88 9.81 27.344 30.666 27.43 60.31l1.348 475.404c0.174 59.684-41.792 132.356-93.72 162.336z" />
<glyph unicode="&#xe927;" d="M843.176 10.186l-116.772-67.86c16.88 9.81 27.348 30.666 27.43 60.31l116.772 67.86c-0.084-29.642-10.552-50.5-27.43-60.31z" />
<glyph unicode="&#xe928;" d="M180.822 885.792l116.772 67.86c17.098 9.936 40.776 8.534 66.908-6.554l-116.772-67.86c-26.132 15.088-49.808 16.492-66.908 6.554z" />
<glyph unicode="&#xe929;" d="M755.182 478.038l116.772 67.862-1.348-475.404-116.772-67.86z" />
<glyph unicode="&#xe92a;" d="M247.732 879.238l116.774 67.862 413.724-238.866-116.772-67.86z" />
<glyph unicode="&#xe92b;" d="M661.458 640.374l116.772 67.86c51.93-29.98 93.892-102.654 93.724-162.336l-116.772-67.86c0.17 59.682-41.796 132.354-93.724 162.336z" />
<glyph unicode="&#xe92c;" d="M643.336 437.844c-13.804 0.926-28.658 4.732-44.232 11.59 15.914 1.788 28.166 12.054 33.982 29.388-14.904-1.532-31.396 0.606-48.934 6.742-14.012 25.312-33.988 47.62-56.112 60.394-42.53 24.556-77.108 4.848-77.248-44-0.020-6.932 0.638-14.076 1.938-21.312-63.964 40.622-120.61 108.586-158.41 184.028-6.66-9.246-10.518-22.222-10.564-38.44-0.088-30.68 13.43-65.622 34.052-93.412-12.62 7.744-24.468 18.576-34.834 31.206-0.018-0.368-0.018-0.728-0.020-1.124-0.122-42.832 26.32-93.938 61.512-122.376-6.456 1.712-13.272 4.55-20.294 8.604-4.96 2.864-9.776 6.204-14.472 9.952 9.714-40.808 38.058-82.794 71.74-102.96-26.42-8.512-59.644-3.498-95.706 17.322-6.224 3.592-12.342 7.544-18.374 11.844 34.014-44.762 74.422-82.776 117.904-107.882 141.594-81.75 219.406 8.36 219.738 125.242 0.010 3.824-0.048 7.69-0.192 11.564 15.062 3.812 28.178 11.844 38.526 23.63z" />
<glyph unicode="&#xe92d;" d="M778.23 708.234l-413.724 238.866c-26.132 15.088-49.81 16.49-66.908 6.554l-116.776-67.862c0.054 0.032 0.114 0.056 0.17 0.090-16.976-9.768-27.512-30.658-27.598-60.402l-1.348-475.404c-0.17-59.67 41.796-132.356 93.724-162.336l413.726-238.864c26.882-15.518 51.146-16.524 68.34-5.636-0.478-0.302-0.944-0.628-1.436-0.916l116.772 67.86c16.88 9.81 27.344 30.666 27.43 60.31l1.348 475.404c0.174 59.684-41.792 132.356-93.72 162.336z" />
<glyph unicode="&#xe92e;" d="M471.81 538.41l-69.428 40.084c-9.26 5.346-13.916 3.896-18.872 0.096-2.866-2.198-3.736-4.2 2.124-8.882 11.504-9.148 17.976-21.478 19.652-35.714 2.716-22.846 2.456-43.992 0.806-64.388-0.496-5.912-1.454-11.61-3.6-16.162-2.1-4.472-4.996-5.668-8.6-3.588-2.184 1.26-4.626 3.724-7.31 7.392-6.42 8.786-10.938 18.586-15.346 28.344-16.574 36.636-29.762 73.45-40.524 110.354-3.122 10.666-8.492 19.13-16.642 23.976-10.038 5.99-20.064 11.886-30.086 17.674-10.022 5.786-20.042 11.464-30.066 17.022-12.068 6.738-15.682 2.056-10.81-13.348 21.678-68.39 45.83-136.702 77.4-204.412 16.224-34.764 34.894-67.994 58.984-97.798 24.216-29.96 50.11-50.978 77.314-66.686 3.49-2.014 7.006-3.944 10.536-5.792 14.538-7.63 18.918-5.772 19.63 10.46 0.51 11.126 1.654 21.796 6.56 29.214 2.978 4.494 6.886 5.346 11.41 2.734 2.81-1.622 5.858-4.582 9.068-8.838 4.188-5.56 7.68-11.538 11.032-17.684 8.15-15.006 15.99-30.154 24.464-45.028 9.676-16.972 21.036-30.634 35.006-38.7 1.33-0.766 2.684-1.486 4.060-2.148l61.448-35.512c9.878-4.94 15.072 6.022 9.414 21.97-3.988 11.234-9.212 22.192-14.728 33.066-12.498 24.516-27.224 47.812-41.158 71.576-12.582 21.42-13.362 30.094-3.162 40.508 11.098 11.442 23.078 21.664 34.268 32.964 10.464 10.582 21.174 20.936 26.708 37.598 3.524 10.628 0.454 17.978-10.806 26.682-1.912 1.494-3.918 2.688-5.91 3.836l-66.818 38.634c-0.186 0.11-0.37 0.22-0.552 0.326-7.894 4.556-12.318 2.972-15.176-3.604-3.952-9.068-8.042-18.056-12.764-26.252-10.672-18.686-22.608-35.792-39.298-46.47-3.098-1.972-6.468-4.616-11.096-1.944-0.88 0.508-1.806 1.208-2.784 2.14-7.662 7.654-9.872 23.478-9.734 28.302l0.19 88.66c-1.464 13.5-3.87 20.538-14.804 29.338z" />
<glyph unicode="&#xe92f;" d="M843.176 10.186l-116.772-67.86c16.88 9.81 27.348 30.666 27.43 60.31l116.772 67.86c-0.084-29.642-10.552-50.5-27.43-60.31z" />
<glyph unicode="&#xe930;" d="M180.822 885.792l116.772 67.86c17.098 9.936 40.776 8.534 66.908-6.554l-116.772-67.86c-26.132 15.088-49.808 16.492-66.908 6.554z" />
<glyph unicode="&#xe931;" d="M755.182 478.038l116.772 67.862-1.348-475.404-116.772-67.86z" />
<glyph unicode="&#xe932;" d="M247.732 879.238l116.774 67.862 413.724-238.866-116.772-67.86z" />
<glyph unicode="&#xe933;" d="M661.458 640.374l116.772 67.86c51.93-29.98 93.892-102.654 93.724-162.336l-116.772-67.86c0.17 59.682-41.796 132.354-93.724 162.336z" />
<glyph unicode="&#xe934;" d="M778.23 708.234l-413.724 238.866c-26.132 15.088-49.81 16.49-66.908 6.554l-116.776-67.862c0.054 0.032 0.114 0.056 0.17 0.090-16.976-9.768-27.512-30.658-27.598-60.402l-1.348-475.404c-0.17-59.67 41.796-132.356 93.724-162.336l413.726-238.864c26.882-15.518 51.146-16.524 68.34-5.636-0.478-0.302-0.944-0.628-1.436-0.916l116.772 67.86c16.88 9.81 27.344 30.666 27.43 60.31l1.348 475.404c0.174 59.684-41.792 132.356-93.72 162.336z" />
<glyph unicode="&#xe935;" d="M843.176 10.186l-116.772-67.86c16.88 9.81 27.348 30.666 27.43 60.31l116.772 67.86c-0.084-29.642-10.552-50.5-27.43-60.31z" />
<glyph unicode="&#xe936;" d="M180.822 885.792l116.772 67.86c17.098 9.936 40.776 8.534 66.908-6.554l-116.772-67.86c-26.132 15.088-49.808 16.492-66.908 6.554z" />
<glyph unicode="&#xe937;" d="M755.182 478.038l116.772 67.862-1.348-475.404-116.772-67.86z" />
<glyph unicode="&#xe938;" d="M247.732 879.238l116.774 67.862 413.724-238.866-116.772-67.86z" />
<glyph unicode="&#xe939;" d="M661.458 640.374l116.772 67.86c51.93-29.98 93.892-102.654 93.724-162.336l-116.772-67.86c0.17 59.682-41.796 132.354-93.724 162.336z" />
<glyph unicode="&#xe93a;" d="M344.87 312.162l0.818 298.84 249.66-294.322-250.478-4.518z" />
<glyph unicode="&#xe93b;" d="M345.686 611.002l231.098-294.66 18.562 0.338z" />
</font>
</defs>
</svg>
